{"title":"Falcon.Rising.2014.1080p.WEB-DL.DD5.1.H264 GREEK SUBS","uid":11014613,"size":4121288946,"categoryP":"video","categoryS":"hd___movies","magnet":"?xt=urn:btih:02a225437c4b044fb5dd2504105c3b0d57a8f02b&amp;dn=Falcon.Rising.2014.1080p.WEB-DL.DD5.1.H264+GREEK+SUBS&amp;tr=udp%3A%2F%2Ftracker.openbittorrent.com%3A80&amp;tr=udp%3A%2F%2Fopen.demonii.com%3A1337&amp;tr=udp%3A%2F%2Ftracker.coppersurfer.tk%3A6969&amp;tr=udp%3A%2F%2Fexodus.desync.com%3A6969","seeders":1,"leechers":0,"uploader":"holyANT","files":-1,"time":1410446318,"description":"\nO Tsapman, einai enos prwhn pezonayths o opoios kynhgaei stis paragkoupoleis ths Vrazilias, th Giakoyza, h opoia epitethhke sthn adelfh tou kai thn afhse na pethanei...\n\n\n\nEidos Tainias : Action | Adventure\nXwra Paragwghs :  USA\nGlwssa : English\nYpotitloi : Ellhnikoi Enswmatwmenoi\nDiarkeia : 103 min\nSkhnothesia : Action | Adventure\nSenario : Y.T. Parazi\nHthopoioi : Neal McDonough, Michael Jai White, Laila Ali\n\n\nGeneral\nUnique ID : 254193370715909088598880351753662912279 (0xBF3BDCC862D886DD90E749CA22105717)\nComplete name : Falcon.Rising.2014.1080p.WEB-DL.DD5.1.H264-RARBG/Falcon.Rising.2014.1080p.WEB-DL.DD5.1.H264-RARBG.mkv\nFormat : Matroska\nFormat version : Version 4 / Version 2\nFile size : 3.84 GiB\nDuration : 1h 40mn\nOverall bit rate : 5 442 Kbps\nEncoded date : UTC 2014-09-07 22:55:13\nWriting application : mkvmerge v7.1.0 ('Good Love') 64bit built on Jul 27 2014 13:06:55\nWriting library : libebml v1.3.0 + libmatroska v1.4.1\nAttachment : Yes / Yes / Yes / Yes\n\nVideo\nID : 1\nFormat : AVC\nFormat/Info : Advanced Video Codec\nFormat profile : &lt;a class=&quot;__cf_email__&quot; href=&quot;/cdn-cgi/l/email-protection&quot; data-cfemail=&quot;642c0d030c2428504a54&quot;&gt;[email&amp;#160;protected]&lt;/a&gt;&lt;script cf-hash='f9e31' type=&quot;text/javascript&quot;&gt;\n/* &lt;![CDATA[ */!function(){try{var t=&quot;currentScript&quot;in document?document.currentScript:function(){for(var t=document.getElementsByTagName(&quot;script&quot;),e=t.length;e--;)if(t[e].getAttribute(&quot;cf-hash&quot;))return t[e]}();if(t&amp;&amp;t.previousSibling){var e,r,n,i,c=t.previousSibling,a=c.getAttribute(&quot;data-cfemail&quot;);if(a){for(e=&quot;&quot;,r=parseInt(a.substr(0,2),16),n=2;a.length-n;n+=2)i=parseInt(a.substr(n,2),16)^r,e+=String.fromCharCode(i);e=document.createTextNode(e),c.parentNode.replaceChild(e,c)}}}catch(u){}}();/* ]]&gt; */&lt;/script&gt;\nFormat settings, CABAC : Yes\nFormat settings, ReFrames : 4 frames\nCodec ID : V_MPEG4/ISO/AVC\nDuration : 1h 40mn\nBit rate : 4 949 Kbps\nWidth : 1 920 pixels\nHeight : 1 028 pixels\nDisplay aspect ratio : 1.868\nFrame rate : 23.976 fps\nColor space : YUV\nChroma subsampling : 4:2:0\nBit depth : 8 bits\nScan type : Progressive\nBits/(Pixel*Frame) : 0.105\nStream size : 3.49 GiB (91%)\nTitle : Falcon.Rising.2014.1080p.WEB-DL.DD5.1.H264-RARBG\nLanguage : English\nDefault : Yes\nForced : No\nColor primaries : BT.709-5, BT.1361, IEC 61966-2-4, SMPTE RP177\nTransfer characteristics : BT.709-5, BT.1361\nMatrix coefficients : BT.709-5, BT.1361, IEC 61966-2-4 709, SMPTE RP177\n\nAudio\nID : 2\nFormat : AC-3\nFormat/Info : Audio Coding 3\nMode extension : CM (complete main)\nCodec ID : A_AC3\nDuration : 1h 40mn\nBit rate mode : Constant\nBit rate : 384 Kbps\nChannel(s) : 6 channels\nChannel positions : Front: L C R, Side: L R, LFE\nSampling rate : 48.0 KHz\nBit depth : 16 bits\nCompression mode : Lossy\nStream size : 277 MiB (7%)\nTitle : Falcon.Rising.2014.1080p.WEB-DL.DD5.1.H264-RARBG\nLanguage : English\nDefault : Yes\nForced : No\n\nText\nID : 3\nFormat : UTF-8\nCodec ID : S_TEXT/UTF8\nCodec ID/Info : UTF-8 Plain Text\nLanguage : English\nDefault : Yes\nForced : No\n\nMenu\n00:00:00.000 : en:1\n00:11:30.000 : en:2\n00:24:35.000 : en:3\n00:34:28.000 : en:4\n00:44:48.000 : en:5\n00:55:28.000 : en:6\n01:06:32.000 : en:7\n01:16:01.000 : en:8\n01:30:53.000 : en:9\n01:35:44.000 : en:10\n","torrent":{"xt":"urn:btih:02a225437c4b044fb5dd2504105c3b0d57a8f02b","amp;dn":"Falcon.Rising.2014.1080p.WEB-DL.DD5.1.H264+GREEK+SUBS","amp;tr":["udp%3A%2F%2Ftracker.openbittorrent.com%3A80","udp%3A%2F%2Fopen.demonii.com%3A1337","udp%3A%2F%2Ftracker.coppersurfer.tk%3A6969","udp%3A%2F%2Fexodus.desync.com%3A6969"],"infoHash":"02a225437c4b044fb5dd2504105c3b0d57a8f02b","infoHashBuffer":{"type":"Buffer","data":[2,162,37,67,124,75,4,79,181,221,37,4,16,92,59,13,87,168,240,43]},"announce":[],"urlList":[]}}